<svg width="76" height="40" viewBox="0 0 76 40" fill="none" xmlns="http://www.w3.org/2000/svg">
<path fill-rule="evenodd" clip-rule="evenodd" d="M25.105 0.0810028C24.3961 0.296665 23.7186 0.904157 23.3998 1.61006C23.0366 2.41389 23.0848 2.60557 24.5865 6.32922C25.1794 7.79936 25.6779 9.12703 25.6943 9.2796C25.7226 9.54199 25.634 9.61717 24.0586 10.6683C22.2467 11.8771 20.939 12.6502 20.7059 12.6502C20.4189 12.6502 19.5664 11.7542 18.904 10.7565C18.5355 10.2014 17.8916 9.04071 17.4733 8.17701C17.0549 7.31332 16.6117 6.47322 16.4885 6.31009C16.1414 5.85107 15.4733 5.57602 14.6841 5.56717C13.9078 5.55851 13.8788 5.57279 11.6385 7.06482C9.74734 8.32444 9.1467 8.79373 8.95921 9.15863C8.87356 9.32537 8.62116 9.6974 8.39817 9.9853C7.46024 11.1967 5.30665 16.1762 5.45874 16.7821C5.49072 16.9095 5.66298 17.1844 5.84143 17.3929C6.01998 17.6015 6.16607 17.856 6.16607 17.9584C6.16607 18.3186 5.5779 21.0699 5.33873 21.8286C5.05587 22.7255 4.63616 23.595 4.24823 24.0872C3.9354 24.4844 3.29222 24.8323 2.87117 24.8323C2.22875 24.8323 1.48745 25.5392 0.890615 26.721C0.631267 27.2345 0.606808 27.3812 0.364782 29.8765C0.31139 30.4261 0.198419 31.3898 0.113525 32.0179C-0.0763457 33.4237 -0.0253329 34.7555 0.245721 35.4656C0.826373 36.9866 2.42367 38.3534 3.93606 38.6234C5.02608 38.818 14.0772 39.4825 18.3007 39.6778C19.3999 39.7288 25.1301 39.7713 31.0344 39.7724L41.7694 39.7745L42.4747 39.2987C42.8625 39.0369 43.2307 38.8228 43.2929 38.8228C43.3549 38.8228 43.7744 39.0552 44.2251 39.3393L45.0443 39.8557L47.4237 39.7695C48.7323 39.7221 51.2653 39.6402 53.0525 39.5877C54.8398 39.5351 56.4057 39.4527 56.5325 39.4044C56.6593 39.3562 57.0945 39.0533 57.4997 38.7313L58.2364 38.1458L59.1408 38.6334L60.0452 39.121L61.4435 38.7385C67.0957 37.1923 71.4878 34.967 73.8818 32.4363C74.9618 31.2947 75.57 30.2594 75.8888 29.02C76.2588 27.5813 75.6531 23.6998 74.843 22.3179C74.5423 21.8048 73.549 20.8652 73.1163 20.6844C72.6361 20.4838 70.1608 19.8968 67.1245 19.2636C59.0613 17.582 54.1984 16.2168 50.2789 14.5343L48.6609 13.8398L48.6133 13.2549C48.559 12.5865 48.3768 12.3182 47.8853 12.1825C47.4944 12.0745 46.9948 12.1976 46.757 12.4604C46.5278 12.7136 46.1623 12.6998 45.452 12.4113C44.7746 12.136 44.7147 12.0678 44.7127 11.5699C44.7115 11.2829 44.6427 11.135 44.3952 10.8875C43.8587 10.351 43.3326 10.3699 42.5083 10.9551C42.3823 11.0446 42.2106 11.005 41.6331 10.7533C40.7876 10.3846 40.661 10.2639 40.5359 9.7073C40.3937 9.07459 40.0617 8.79564 39.4507 8.79564C39.0726 8.79564 38.8797 8.85084 38.6464 9.02586C38.3635 9.23819 38.3114 9.24666 37.9761 9.13607C37.7762 9.07002 37.3788 8.90223 37.0932 8.76309L36.5739 8.51012L36.6069 7.91491C36.6384 7.34491 36.626 7.30589 36.3127 6.99258C35.8858 6.56573 35.5526 6.48664 35.0075 6.6827C34.6633 6.80642 34.5425 6.81432 34.4042 6.722C34.3091 6.65862 33.3022 5.36655 32.1666 3.85082L30.1021 1.09498L28.8173 0.736556C27.3051 0.314748 25.8628 -0.01122 25.5592 0.00029593C25.4406 0.00476907 25.2361 0.0411252 25.105 0.0810028ZM27.5006 2.81305L28.8012 3.15529L30.0465 4.88944C30.7314 5.84317 31.2918 6.68793 31.2918 6.76664C31.2918 6.90502 30.27 7.43828 29.4359 7.73531C29.2266 7.80983 28.8305 7.9604 28.556 8.06994L28.0568 8.26904L27.7344 7.62824C27.3858 6.93491 26.3062 4.47039 25.8528 3.33269C25.6984 2.94534 25.596 2.56598 25.6252 2.48984C25.6861 2.33118 25.6377 2.32281 27.5006 2.81305ZM17.1316 12.3793C18.098 13.7337 19.7103 14.9622 20.6945 15.0942C21.357 15.1831 21.8136 14.9651 23.9135 13.557C25.037 12.8037 26.5354 11.8603 27.2434 11.4608C28.8184 10.5717 30.9035 9.56521 30.9901 9.6522C31.0252 9.68741 30.8826 9.85168 30.6732 10.0173C29.7077 10.7809 29.5564 10.97 29.5135 11.4667C29.4595 12.0917 29.707 12.5003 30.2354 12.6585C30.5812 12.7622 30.6614 12.7498 31.1203 12.5214C31.3978 12.3833 32.2183 11.7955 32.9435 11.2151C34.447 10.0122 34.2669 10.0501 35.556 10.6653L36.3539 11.0462L36.2887 11.6955C36.2457 12.124 36.2609 12.4146 36.3334 12.5501C36.4868 12.8369 36.9936 13.1253 37.3448 13.1256C37.6415 13.126 38.2087 12.7783 38.5635 12.3785C38.6633 12.2662 38.8179 12.1743 38.9073 12.1743C39.1594 12.1743 40.3353 12.735 40.3918 12.8823C40.4195 12.9545 40.3749 13.1439 40.2925 13.303C39.9709 13.925 40.2255 14.7001 40.8492 14.9975C41.2758 15.2009 41.5759 15.082 42.399 14.3837L43.0051 13.8696L43.7154 14.2069C44.106 14.3924 44.4257 14.5699 44.4257 14.6012C44.4257 14.6326 44.3583 14.7885 44.276 14.9476C43.9814 15.5175 44.3453 16.3704 44.9565 16.5424C45.3532 16.6539 45.8176 16.4823 46.4227 16.0004L46.9109 15.6119L47.31 15.7858C47.5296 15.8816 48.4373 16.2806 49.3271 16.6727C50.217 17.0647 51.3617 17.5409 51.8709 17.731C54.0949 18.5611 60.3482 20.1974 65.521 21.3028C69.5017 22.1535 69.6031 22.1786 69.4384 22.2707C69.0032 22.5144 64.6235 23.2064 60.7479 23.6438C59.3293 23.804 58.4422 23.9478 58.2271 24.0523C57.5928 24.3607 57.2827 25.1858 57.5667 25.8092C57.6229 25.9325 59.0295 27.0489 60.6924 28.2899C63.8117 30.6176 64.1909 30.9327 64.0834 31.1067C63.9807 31.2728 63.7808 31.226 63.3462 30.9341C62.5779 30.4181 57.4291 27.6336 50.0409 23.7386C48.1827 22.7589 45.6197 21.3992 44.3454 20.717C41.7508 19.3281 41.9559 19.5417 42.2433 18.5271C42.4031 17.9631 42.2629 17.3348 41.8665 16.8378C41.4956 16.3729 41.2498 16.2764 39.7739 16.0165C37.0394 15.535 34.7398 15.281 33.0525 15.2741C30.9506 15.2654 30.7195 15.3341 26.9603 17.0862L25.4126 17.8075L18.2661 14.7413C14.3355 13.0549 11.0493 11.6237 10.9634 11.5609C10.8388 11.4698 10.8214 11.3626 10.8772 11.0315C10.9756 10.4491 11.4396 10.0062 13.2067 8.80782L14.6797 7.80888L15.6847 9.78458C16.2375 10.8712 16.8886 12.0389 17.1316 12.3793ZM35.5276 16.9807C38.4809 17.3222 40.4707 17.6586 40.6232 17.8423C40.8095 18.0669 40.4659 18.5095 39.4053 19.411C38.3692 20.2918 36.3458 21.862 36.0102 22.0457C35.7985 22.1617 35.4652 22.06 33.7663 21.3616C31.7252 20.5224 27.5328 18.7215 27.4578 18.6517C27.334 18.5367 30.1981 17.2733 31.149 17.0234C31.9971 16.8005 33.8151 16.7828 35.5276 16.9807ZM10.2699 18.9398C10.5641 19.1394 10.9817 19.5036 11.1979 19.7491C11.5151 20.1095 11.5909 20.2673 11.5909 20.567C11.5909 20.8785 11.518 21.0166 11.1389 21.4234C10.461 22.1507 6.59578 25.1986 6.48795 25.0908C6.46834 25.0712 6.58312 24.8136 6.7431 24.5183C7.32861 23.4372 7.9499 21.3603 8.30042 19.3123C8.3856 18.815 8.4764 18.3116 8.50219 18.1936L8.54921 17.9791L9.14214 18.278C9.4683 18.4424 9.97576 18.7402 10.2699 18.9398ZM48.7732 24.8366C58.4464 29.9453 60.4212 31.0032 60.6002 31.1714C60.717 31.2813 60.615 31.293 59.934 31.2481C56.7538 31.0383 53.2876 30.5655 50.5168 29.9636C48.812 29.5932 47.5033 29.567 45.5536 29.8644L44.2546 30.0625L42.5557 29.4093C40.8859 28.7675 39.9803 28.519 38.8685 28.3978L38.3078 28.3367L39.7629 27.5383C40.5632 27.0992 41.2973 26.668 41.3943 26.5803C41.6536 26.3456 41.6325 25.6187 41.3542 25.2057C41.0236 24.715 40.172 24.082 39.008 23.4616C38.4283 23.1526 37.9539 22.8483 37.9539 22.7853C37.9539 22.7223 38.3501 22.3307 38.8343 21.915C40.2456 20.7034 40.4668 20.5399 40.6359 20.5828C40.724 20.6051 44.3857 22.5193 48.7732 24.8366ZM23.0356 22.4838C23.9929 22.8127 28.4021 24.5719 28.8785 24.815C29.3854 25.0738 29.5861 25.3235 29.646 25.7704C29.6848 26.0597 29.647 26.2333 29.49 26.4874C29.242 26.8887 28.3752 27.6875 28.1878 27.6875C28.1146 27.6875 27.509 27.448 26.8419 27.1552C23.3233 25.6111 22.8967 25.4805 21.3462 25.4727C19.9454 25.4656 18.8965 25.7227 17.5533 26.4021L16.5361 26.9166L15.277 26.5432C13.5769 26.0388 12.9406 25.8331 12.8734 25.7659C12.7836 25.6759 13.7707 25.1187 15.9245 24.0433C18.2686 22.8729 18.9082 22.5945 19.8182 22.3489C20.775 22.0905 22.0461 22.1438 23.0356 22.4838ZM72.6317 23.2382C72.944 23.6499 73.2048 24.4552 73.5065 25.939C73.797 27.3676 73.7945 28.2798 73.4988 28.8741C73.3239 29.2253 73.2475 29.2742 72.4067 29.5711C71.3868 29.9313 69.0717 30.5444 67.8026 30.7905C67.0961 30.9274 66.9247 30.9338 66.7557 30.8293C66.341 30.5731 59.7531 25.6779 59.6937 25.5819C59.6597 25.5269 59.669 25.4458 59.7141 25.4016C59.7593 25.3574 60.6099 25.2303 61.6045 25.1193C66.0727 24.6203 69.9595 23.8604 71.788 23.1283C72.0498 23.0235 72.2939 22.9358 72.3304 22.9333C72.3671 22.9309 72.5026 23.068 72.6317 23.2382ZM10.7688 26.8944C11.1804 26.9734 12.7222 27.3959 14.1951 27.8331L16.8731 28.628L17.4441 28.2575C18.8583 27.34 20.0825 26.9781 21.5366 27.0479C22.8923 27.1129 23.1042 27.1946 29.5311 30.1332C30.7874 30.7076 32.0558 31.2758 32.3498 31.3959L32.8842 31.6141L34.4912 31.1123C35.3749 30.8363 36.5049 30.4814 37.0022 30.3237C37.7275 30.0936 38.0852 30.0352 38.8105 30.0281C39.8244 30.0182 40.0255 30.0735 42.4647 31.0324C43.2443 31.3389 44.0263 31.5896 44.2023 31.5896C44.3782 31.5896 44.9609 31.5204 45.4971 31.4356C46.0648 31.3459 47.0483 31.2813 47.852 31.281C49.1159 31.2804 49.4201 31.3179 51.4685 31.7269C54.9474 32.4213 55.8552 32.5308 59.0559 32.6422C63.9617 32.8129 67.048 32.6065 69.9514 31.9135C71.4651 31.5522 71.5819 31.6165 70.5984 32.2696C68.7637 33.488 67.002 34.3454 64.1087 35.4279C62.1114 36.1752 60.8639 36.5617 60.5794 36.5212C60.4144 36.4977 60.2402 36.2412 59.7962 35.3679C59.1476 34.0923 58.5643 33.289 58.1195 33.0591C57.1767 32.5715 55.1384 32.7772 52.6582 33.6102C50.9127 34.1964 49.4012 34.8492 46.5195 36.2614L45.425 36.7977L43.4189 34.835C42.3154 33.7556 41.1736 32.7078 40.8814 32.5065C40.3935 32.1706 40.2843 32.1366 39.5449 32.0904C38.9204 32.0515 38.6143 32.0796 38.1822 32.2155C37.8756 32.3119 36.0464 33.1742 34.1172 34.1316C32.188 35.0891 30.5703 35.8724 30.5224 35.8724C30.4745 35.8724 30.4353 35.5961 30.4353 35.2585C30.4353 33.384 29.539 31.9089 27.8979 31.0825C27.5299 30.8972 26.0158 30.2502 24.5333 29.6448L21.8379 28.5441L20.0693 28.546L18.3007 28.5479L10.9247 32.2926L3.5488 36.0373L3.1841 35.6931C2.2396 34.8019 2.13186 34.1972 2.48686 31.78C2.62144 30.8639 2.7562 29.7718 2.78647 29.3531C2.8883 27.9398 2.91666 27.8194 3.17506 27.7017C3.76142 27.4345 6.74986 26.7781 7.68884 26.7103C8.45641 26.6549 10.0039 26.7473 10.7688 26.8944ZM21.2211 30.1602C22.8597 30.5894 27.4857 32.5037 28.0487 32.9855C28.9484 33.7557 29.0622 35.0757 28.358 36.5754L27.9609 37.4211L23.0356 37.3667C18.8209 37.3201 14.6942 37.178 11.4958 36.9693C8.81664 36.7946 6.68 36.6114 6.56408 36.5464C6.37973 36.4433 6.6703 36.2486 8.33811 35.3573C10.4242 34.2423 18.2391 30.3484 18.7765 30.1559C19.4119 29.9285 20.3427 29.9301 21.2211 30.1602ZM39.8256 33.6894C40.1025 33.7947 42.6386 36.2424 42.5948 36.3621C42.5811 36.3996 42.2366 36.6473 41.8293 36.9127L41.0888 37.3952L36.3568 37.3938C33.7543 37.3929 31.5723 37.3588 31.5079 37.3179C31.3709 37.2309 37.3442 34.1603 38.3219 33.8152C39.017 33.5698 39.4219 33.5359 39.8256 33.6894ZM57.3172 34.4087C57.4999 34.4788 58.0355 35.2317 58.0355 35.4184C58.0355 35.49 57.8964 35.5993 57.7262 35.661C57.556 35.7229 57.1479 35.9914 56.8192 36.2578C55.6815 37.1799 55.3843 37.2302 50.4216 37.3395L47.8995 37.3951L48.9275 36.8684C51.5718 35.5136 55.0249 34.3643 56.4811 34.3543C56.8564 34.3518 57.2326 34.3762 57.3172 34.4087Z" fill="#6468DA"/>
</svg>
