<svg width="100" height="100" viewBox="0 0 100 100" fill="none" xmlns="http://www.w3.org/2000/svg">
<rect width="100" height="100" rx="25" fill="#6468DA"/>
<path fill-rule="evenodd" clip-rule="evenodd" d="M15.2535 29.9749C14.9033 30.7639 14.977 31.9263 15.4391 32.9007C15.9651 34.0103 16.1989 34.1666 21.194 36.7486C23.1661 37.768 24.9175 38.7182 25.0858 38.8603C25.3755 39.1045 25.3809 39.2521 25.1845 41.5873C24.9586 44.273 24.6944 46.1103 24.5071 46.2976C24.2765 46.5281 22.68 46.3016 21.1327 45.8187C20.2719 45.5501 18.5736 44.8864 17.3588 44.3438C16.1439 43.8012 14.933 43.3026 14.668 43.2356C13.9221 43.0475 13.1055 43.3044 12.4624 43.9295C11.8299 44.5444 11.8211 44.5822 11.5391 47.9003C11.3012 50.7013 11.2961 51.6614 11.5167 52.1833C11.6175 52.4218 11.7932 53.0031 11.907 53.4752C12.3858 55.4612 15.7218 62.2579 16.4605 62.7521C16.6158 62.8561 17.0339 62.9973 17.3894 63.0661C17.7451 63.1349 18.1214 63.2764 18.2256 63.3806C18.592 63.7471 20.9188 67.0189 21.4984 67.9829C22.1837 69.1227 22.7311 70.3446 22.9203 71.1571C23.073 71.8126 22.9102 72.6834 22.5719 73.0216C22.0558 73.5378 22.1793 74.8526 22.9022 76.5345C23.2163 77.2654 23.3458 77.4342 25.6902 80.1675C26.2065 80.7696 27.0962 81.8408 27.6671 82.5481C28.9448 84.131 30.3407 85.4449 31.281 85.9496C33.2951 87.0306 35.9691 87.1379 37.4589 86.1974C38.5327 85.5196 46.481 78.9234 50.0732 75.7287C51.0082 74.8973 55.6555 70.3366 60.4006 65.5939L69.028 56.9707L69.1105 55.9199C69.1558 55.342 69.2338 54.8283 69.2837 54.7784C69.3336 54.7285 69.9071 54.6279 70.5582 54.5549L71.7419 54.422L73.5659 52.4226C74.5691 51.3229 76.5209 49.2045 77.9035 47.7151C79.2859 46.2255 80.4603 44.8834 80.5131 44.7325C80.5659 44.5816 80.6074 43.9237 80.6053 43.2706L80.6016 42.083L81.8243 41.8524L83.047 41.6218L83.7813 40.1092C86.7496 33.9947 88.0143 28.2017 87.3631 23.7034C87.0693 21.6742 86.5047 20.1321 85.4998 18.615C84.3334 16.854 79.8976 13.3914 77.8407 12.6363C77.077 12.356 75.323 12.1981 74.7914 12.3618C74.2015 12.5435 71.6154 13.9352 68.5316 15.7304C60.3422 20.4981 55.046 23.0162 50.185 24.4536L48.1785 25.047L47.5451 24.4901C46.8214 23.8537 46.4021 23.7271 45.869 23.984C45.4452 24.1883 45.169 24.7149 45.2452 25.1733C45.3188 25.6151 45.011 25.8948 44.1467 26.1719C43.3225 26.4361 43.2049 26.4148 42.6967 25.9099C42.4038 25.6188 42.198 25.5236 41.7472 25.4706C40.7704 25.3558 40.3669 25.7978 40.3 27.0555C40.2898 27.2478 40.1116 27.3455 39.3914 27.5533C38.337 27.8575 38.1125 27.8365 37.4457 27.3707C36.6878 26.8412 36.1372 26.8241 35.6463 27.315C35.3425 27.6189 35.2436 27.83 35.2343 28.1955C35.223 28.6389 35.1898 28.6893 34.8079 28.8462C34.58 28.9397 34.09 29.0882 33.719 29.1761L33.0444 29.336L32.4653 28.7039C31.9106 28.0987 31.861 28.0689 31.2905 28.0019C30.5132 27.9106 30.1651 28.0978 29.9265 28.7353C29.7759 29.1377 29.6869 29.2428 29.4818 29.26C29.3409 29.2719 27.2173 28.7664 24.7628 28.1366L20.3002 26.9915L18.9032 27.6591C17.259 28.445 15.7686 29.2722 15.5363 29.5278C15.4455 29.6277 15.3183 29.829 15.2535 29.9749ZM19.9579 30.8298L21.3511 30.1329L24.116 30.8968C25.6367 31.3168 26.9464 31.726 27.0265 31.8061C27.1673 31.9469 26.8889 33.3104 26.5209 34.2828C26.4285 34.5269 26.2635 34.9982 26.1544 35.3303L25.9559 35.9339L25.0449 35.541C24.0594 35.1157 20.6845 33.4757 19.1626 32.6824C18.6445 32.4124 18.1762 32.1087 18.1222 32.0077C18.0098 31.7974 17.9623 31.8278 19.9579 30.8298ZM21.3597 48.8939C23.5142 49.4953 26.0595 49.4499 26.9846 48.7934C27.6073 48.3516 27.7524 47.7628 28.0069 44.643C28.1432 42.9739 28.3873 40.8101 28.5497 39.8348C28.9106 37.6647 29.5619 34.9654 29.7199 34.9844C29.784 34.992 29.8365 35.2737 29.8368 35.6104C29.8379 37.163 29.9088 37.477 30.3796 38.0169C30.9722 38.6961 31.5867 38.913 32.1723 38.6495C32.5556 38.477 32.6074 38.4001 32.7437 37.7989C32.8262 37.4354 32.8874 36.1782 32.8796 35.005C32.8638 32.5732 32.7576 32.7564 34.4192 32.3466L35.4479 32.093L36.0561 32.806C36.4575 33.2766 36.7654 33.56 36.9615 33.6396C37.3766 33.8081 38.0772 33.6943 38.3597 33.4125C38.5985 33.1746 38.7004 32.365 38.5788 31.6732C38.5446 31.4788 38.5754 31.261 38.6472 31.1892C38.8497 30.9866 40.365 30.6124 40.5603 30.7168C40.656 30.768 40.8128 30.9966 40.9086 31.2246C41.283 32.1158 42.2762 32.6998 43.0799 32.5013C43.6295 32.3655 43.7497 32.0035 43.7006 30.6317L43.6645 29.6216L44.5784 29.394C45.081 29.2689 45.5184 29.1927 45.5503 29.2245C45.5822 29.2565 45.6867 29.4692 45.7824 29.6973C46.1255 30.5139 47.2856 31.0891 47.9517 30.773C48.3839 30.5678 48.5825 30.0201 48.5784 29.0436L48.5753 28.256L49.073 28.1123C49.3468 28.0333 50.4821 27.7101 51.5959 27.3939C52.7098 27.0778 54.114 26.6427 54.7166 26.4268C57.348 25.4845 64.0372 22.125 69.318 19.0936C73.3819 16.7607 73.4889 16.7047 73.4503 16.9308C73.3485 17.5284 70.5336 21.7514 67.8648 25.3103C66.8879 26.6131 66.3215 27.4722 66.255 27.7514C66.0592 28.5748 66.6494 29.6634 67.5119 30.0695C67.6826 30.1498 69.9485 30.1555 72.5472 30.0819C77.4217 29.9441 78.047 29.9598 78.1377 30.2234C78.2241 30.4748 78.0159 30.5878 77.3697 30.64C76.2274 30.7323 69.2575 32.0362 59.3585 34.0095C56.8687 34.5058 53.426 35.1817 51.7081 35.5115C48.2103 36.183 48.5924 36.2356 47.7911 34.9723C47.3456 34.2701 46.5937 33.7435 45.7696 33.5563C44.9985 33.3813 44.7028 33.4806 43.2527 34.4021C40.5657 36.1093 38.4596 37.6985 37.0969 39.0471C35.3992 40.7271 35.2835 40.9827 34.0456 45.7857L33.536 47.7631L24.6744 50.3855C19.8005 51.8278 15.704 53.012 15.5711 53.0171C15.3783 53.0246 15.2552 52.9294 14.9633 52.5478C14.4498 51.8761 14.372 51.0528 14.5725 48.4137L14.7396 46.2138L17.5573 47.4164C19.1069 48.0778 20.8181 48.7427 21.3597 48.8939ZM40.8219 38.7949C43.5422 36.7694 45.4832 35.513 45.7926 35.5774C46.1709 35.6562 46.3451 36.3825 46.4101 38.1518C46.4738 39.8805 46.4456 43.1038 46.3628 43.5603C46.3107 43.8485 45.9395 44.0128 43.8639 44.6672C41.3702 45.4533 36.1695 46.9895 36.0381 46.9788C35.8217 46.9612 36.8375 43.3746 37.3473 42.3563C37.8019 41.4481 39.2446 39.9694 40.8219 38.7949ZM22.5214 61.0817C22.9608 61.0484 23.6669 61.0835 24.0904 61.1596C24.7119 61.2714 24.9335 61.3711 25.2384 61.676C25.5553 61.9929 25.6372 62.1919 25.7465 62.9105C25.9418 64.1951 25.9371 70.4017 25.7409 70.3787C25.7052 70.3745 25.5353 70.0201 25.3634 69.5911C24.7339 68.0208 23.12 65.4085 21.3179 63.0432C20.8804 62.4688 20.4412 61.8837 20.3419 61.7429L20.1614 61.4869L20.942 61.3146C21.3712 61.2198 22.082 61.1151 22.5214 61.0817ZM59.4571 36.1452C72.4269 33.5709 75.0899 33.0604 75.4049 33.0878C75.6105 33.1057 75.5404 33.1996 74.9476 33.701C72.179 36.0428 68.9129 38.3467 66.0743 39.9606C64.3277 40.9535 63.2496 41.9783 61.9857 43.8475L61.1435 45.0927L59.1139 45.7932C57.1193 46.4817 56.1388 46.9566 55.1222 47.7266L54.6095 48.1149L54.9663 46.1335C55.1626 45.0437 55.3138 44.0152 55.3024 43.848C55.272 43.4008 54.5154 42.6782 53.8717 42.4817C53.1067 42.2481 51.7785 42.2883 50.212 42.5922C49.4319 42.7437 48.7411 42.8151 48.677 42.751C48.613 42.687 48.5329 41.9702 48.4989 41.1583C48.4002 38.7917 48.4116 38.4476 48.5912 38.3554C48.6845 38.3073 53.5742 37.3127 59.4571 36.1452ZM36.384 54.4308C37.4877 53.9962 42.8202 52.2435 43.4504 52.108C44.1209 51.964 44.5363 52.0568 45.039 52.4633C45.3646 52.7265 45.5108 52.9335 45.6432 53.3182C45.8523 53.9258 45.9686 55.4349 45.818 55.5855C45.7592 55.6443 45.0288 55.8872 44.195 56.1253C39.797 57.3814 39.3212 57.5912 38.0675 58.829C36.9349 59.9473 36.3537 61.0516 35.9657 62.8222L35.6719 64.1629L34.2803 64.7946C32.4012 65.6475 31.6806 65.9494 31.5582 65.935C31.3945 65.9157 31.6207 64.5556 32.2571 61.731C32.9497 58.6568 33.1804 57.8596 33.6616 56.8785C34.1674 55.8469 35.243 54.8798 36.384 54.4308ZM77.0003 15.3495C77.6701 15.5174 78.699 16.1271 80.4511 17.3944C82.1379 18.6145 83.064 19.5446 83.4311 20.3869C83.648 20.8847 83.6363 20.9958 83.2628 21.9735C82.8098 23.1594 81.5735 25.6433 80.8041 26.9134C80.3758 27.6203 80.2446 27.7645 80.0025 27.794C79.4086 27.8665 69.135 28.1791 68.9896 28.1293C68.9064 28.1006 68.8313 28.0107 68.8225 27.9294C68.8139 27.8481 69.3681 27.0354 70.0542 26.1233C73.1365 22.0256 75.4863 18.1296 76.2106 15.9154C76.3143 15.5985 76.4212 15.3132 76.4481 15.2813C76.475 15.2494 76.7234 15.28 77.0003 15.3495ZM31.0154 68.7741C31.4265 68.5239 33.0952 67.7149 34.7234 66.9764L37.6838 65.6334L37.7657 64.7977C37.9684 62.7278 38.5838 61.3761 39.8231 60.2788C40.9785 59.2556 41.232 59.1685 49.3856 56.9945C50.9793 56.5695 52.5765 56.1285 52.9349 56.0145L53.5864 55.8071L54.367 54.0055C54.7963 53.0146 55.3431 51.7456 55.5822 51.1856C55.9308 50.3687 56.1587 50.0218 56.7343 49.4319C57.5389 48.6072 57.7567 48.5019 60.6921 47.5177C61.6303 47.203 62.5138 46.8299 62.6552 46.6885C62.7965 46.5471 63.1942 46.0085 63.5387 45.4914C63.9037 44.944 64.6281 44.0881 65.2735 43.4421C66.2885 42.426 66.5711 42.2197 68.633 40.9899C72.1347 38.9013 72.9755 38.2833 75.6604 35.825C79.7758 32.0571 82.0455 29.3672 83.6733 26.3295C84.5219 24.7457 84.6811 24.7172 84.5554 26.172C84.3209 28.8856 83.7777 31.1735 82.5545 34.5995C81.71 36.9646 81.1009 38.3601 80.8312 38.5476C80.6747 38.6562 80.2738 38.5352 79.0285 38.0034C77.2095 37.2267 75.9236 36.8781 75.3323 37.0015C74.0787 37.263 72.6503 39.1099 71.505 41.9502C70.699 43.9491 70.1487 45.8277 69.2702 49.5798L68.9364 51.0049L65.3277 50.6199C63.3429 50.4082 61.3594 50.2597 60.9198 50.2896C60.186 50.3398 60.0637 50.3929 59.4226 50.9401C58.8813 51.4022 58.6639 51.6767 58.455 52.1622C58.3068 52.5066 57.7143 54.8536 57.1384 57.3778C56.5625 59.902 56.0598 61.9988 56.0213 62.0372C55.9827 62.0758 55.6701 61.8262 55.3266 61.4826C53.4195 59.5755 51.1986 58.7948 49.0391 59.2725C48.5549 59.3797 46.6801 59.9379 44.873 60.5132L41.5875 61.559L40.1684 62.9819L38.7493 64.4049L36.633 74.1411L34.5166 83.8774L33.8734 83.8203C32.2078 83.6724 31.506 83.1437 29.3319 80.3991C28.508 79.359 27.5051 78.1396 27.1034 77.6892C25.7474 76.1695 25.6476 76.0243 25.7355 75.6969C25.9347 74.9538 27.6681 71.885 28.3535 71.0615C28.9138 70.3884 30.2512 69.2391 31.0154 68.7741ZM42.7363 63.6988C44.4895 62.8188 50.154 61.0497 51.0965 61.0876C52.6029 61.1483 54.0375 62.3999 54.9974 64.4915L55.5389 65.671L51.5261 69.5729C48.0924 72.912 44.6321 76.0831 41.85 78.4405C39.5196 80.4153 37.6165 81.9456 37.4573 81.9727C37.2042 82.0159 37.2396 81.5843 37.6728 79.3375C38.2145 76.527 40.5317 66.2862 40.7677 65.6586C41.0468 64.9167 41.7963 64.1704 42.7363 63.6988ZM61.2751 52.3414C61.6046 52.2261 66.1326 52.6787 66.2192 52.8357C66.2464 52.8849 66.2217 53.4137 66.1644 54.0109L66.0603 55.0968L62.2569 58.8973C60.165 60.9875 58.3771 62.706 58.2837 62.7162C58.0852 62.7377 59.7603 54.8142 60.1948 53.6775C60.5037 52.8694 60.7945 52.5096 61.2751 52.3414ZM76.0608 39.0192C76.2789 38.9438 77.4753 39.2795 77.6652 39.4694C77.7381 39.5423 77.7374 39.7653 77.6635 39.9648C77.5898 40.1645 77.535 40.7656 77.5419 41.3007C77.566 43.153 77.3784 43.4429 73.5023 47.5415L71.5324 49.6245L71.8225 48.2627C72.5687 44.7597 74.1738 40.8159 75.3337 39.6357C75.6326 39.3316 75.9598 39.0542 76.0608 39.0192Z" fill="white"/>
</svg>
